<svg height="587" xmlns:xlink="http://www.w3.org/1999/xlink" xmlns:ev="http://www.w3.org/2001/xml-events" viewBox="0 0 938 587" ed:hSpacing="30" ed:vSpacing="30" xmlns:ed="https://www.edrawsoft.cn/xml/2017/SVGExtensions/" ed:name="页面-1" xmlns="http://www.w3.org/2000/svg" width="938" id="page100"><style type="text/css"><![CDATA[
g[ed\:togtopicid],g[ed\:hyperlink],g[ed\:comment],g[ed\:note] {cursor:pointer;}
g[id] {-moz-user-select: none;-ms-user-select: none;user-select: none;}
svg text::selection,svg tspan::selection{background-color: #4285f4;color: #ffffff;fill: #ffffff;}
.st2 {fill:#303030;font-family:微软雅黑;font-size:12pt}
.st3 {fill:#454545;font-family:微软雅黑;font-size:10pt}
.st1 {fill:#ffffff;font-family:微软雅黑;font-size:14pt}
]]></style><defs/><rect height="587" y="0" fill="#ffffff" x="0" width="938"/><path stroke-linejoin="round" d="M-26.7,87.6C-0.9,25.8,-13.4,-115.9,59.9,-115.9" fill="none" ed:tosuperid="102" stroke-linecap="round" stroke="#696969" id="103" transform="matrix(1,0,0,1,139.68,175.38)" ed:parentid="101"/><path stroke-linejoin="round" d="M-3.1,-3.6C15.1,11.7,32,28.5,59.9,28.5" fill="none" ed:tosuperid="104" stroke-linecap="round" stroke="#696969" id="105" transform="matrix(1,0,0,1,139.68,319.77)" ed:parentid="101"/><path stroke-linejoin="round" d="M-13.5,8.9C-0.6,8.9,0.6,-8.9,13.5,-8.9" fill="none" ed:tosuperid="106" stroke-linecap="round" stroke="#696969" id="107" transform="matrix(1,0,0,1,313.79,50.55)" ed:parentid="102"/><path stroke-linejoin="round" d="M-13.5,-5.7C-1.4,-5.7,2.3,5.7,13.5,5.7" fill="none" ed:tosuperid="108" stroke-linecap="round" stroke="#696969" id="109" transform="matrix(1,0,0,1,313.79,65.12)" ed:parentid="102"/><path stroke-linejoin="round" d="M-13.5,-20.2C1.8,-20.2,-5.1,20.2,13.5,20.2" fill="none" ed:tosuperid="110" stroke-linecap="round" stroke="#696969" id="111" transform="matrix(1,0,0,1,313.79,79.7)" ed:parentid="102"/><path stroke-linejoin="round" d="M-13.5,96.3C5.4,96.3,-13.5,-96.3,13.5,-96.3" fill="none" ed:tosuperid="112" stroke-linecap="round" stroke="#696969" id="113" transform="matrix(1,0,0,1,315.5,251.91)" ed:parentid="104"/><path stroke-linejoin="round" d="M-13.5,81.8C5.4,81.8,-13.5,-81.8,13.5,-81.8" fill="none" ed:tosuperid="114" stroke-linecap="round" stroke="#696969" id="115" transform="matrix(1,0,0,1,315.5,266.48)" ed:parentid="104"/><path stroke-linejoin="round" d="M-13.5,67.2C5.4,67.2,-13.5,-67.2,13.5,-67.2" fill="none" ed:tosuperid="116" stroke-linecap="round" stroke="#696969" id="117" transform="matrix(1,0,0,1,315.5,281.05)" ed:parentid="104"/><path stroke-linejoin="round" d="M-13.5,52.6C5.4,52.6,-13.5,-52.6,13.5,-52.6" fill="none" ed:tosuperid="120" stroke-linecap="round" stroke="#696969" id="121" transform="matrix(1,0,0,1,315.5,295.63)" ed:parentid="104"/><path stroke-linejoin="round" d="M-13.5,-12.9C0.3,-12.9,-1.6,12.9,13.5,12.9" fill="none" ed:tosuperid="122" stroke-linecap="round" stroke="#696969" id="123" transform="matrix(1,0,0,1,315.5,361.2)" ed:parentid="104"/><path stroke-linejoin="round" d="M-13.5,51C5.4,51,-13.4,-51,13.5,-51" fill="none" ed:tosuperid="124" stroke-linecap="round" stroke="#696969" id="125" transform="matrix(1,0,0,1,391.36,323.14)" ed:parentid="122"/><path stroke-linejoin="round" d="M-13.5,0C-2.7,0,5.4,0,13.5,0" fill="none" ed:tosuperid="126" stroke-linecap="round" stroke="#696969" id="127" transform="matrix(1,0,0,1,462.64,272.14)" ed:parentid="124"/><path stroke-linejoin="round" d="M-13.5,0C-2.7,0,5.4,0,13.5,0" fill="none" ed:tosuperid="128" stroke-linecap="round" stroke="#696969" id="129" transform="matrix(1,0,0,1,391.36,374.14)" ed:parentid="122"/><path stroke-linejoin="round" d="M-13.5,36.4C4.4,36.4,-11.1,-36.4,13.5,-36.4" fill="none" ed:tosuperid="130" stroke-linecap="round" stroke="#696969" id="131" transform="matrix(1,0,0,1,462.64,337.71)" ed:parentid="128"/><path stroke-linejoin="round" d="M-13.5,-7.3C-1,-7.3,1.4,7.3,13.5,7.3" fill="none" ed:tosuperid="132" stroke-linecap="round" stroke="#696969" id="133" transform="matrix(1,0,0,1,462.64,381.43)" ed:parentid="128"/><path stroke-linejoin="round" d="M-13.5,29.1C3.4,29.1,-8.8,-29.1,13.5,-29.1" fill="none" ed:tosuperid="134" stroke-linecap="round" stroke="#696969" id="135" transform="matrix(1,0,0,1,538.5,359.57)" ed:parentid="132"/><path stroke-linejoin="round" d="M-13.5,0C-2.7,0,5.4,0,13.5,0" fill="none" ed:tosuperid="136" stroke-linecap="round" stroke="#696969" id="137" transform="matrix(1,0,0,1,609.79,330.43)" ed:parentid="134"/><path stroke-linejoin="round" d="M-13.5,7.3C-1,7.3,1.4,-7.3,13.5,-7.3" fill="none" ed:tosuperid="140" stroke-linecap="round" stroke="#696969" id="141" transform="matrix(1,0,0,1,538.5,381.43)" ed:parentid="132"/><path stroke-linejoin="round" d="M-13.5,7.3C-1,7.3,1.4,-7.3,13.5,-7.3" fill="none" ed:tosuperid="142" stroke-linecap="round" stroke="#696969" id="143" transform="matrix(1,0,0,1,609.79,366.86)" ed:parentid="140"/><path stroke-linejoin="round" d="M-13.5,-7.3C-1,-7.3,1.4,7.3,13.5,7.3" fill="none" ed:tosuperid="144" stroke-linecap="round" stroke="#696969" id="145" transform="matrix(1,0,0,1,609.79,381.43)" ed:parentid="140"/><path stroke-linejoin="round" d="M-13.5,-21.9C2.1,-21.9,-5.8,21.9,13.5,21.9" fill="none" ed:tosuperid="146" stroke-linecap="round" stroke="#696969" id="147" transform="matrix(1,0,0,1,538.5,410.57)" ed:parentid="132"/><path stroke-linejoin="round" d="M-13.5,7.3C-1,7.3,1.4,-7.3,13.5,-7.3" fill="none" ed:tosuperid="148" stroke-linecap="round" stroke="#696969" id="149" transform="matrix(1,0,0,1,609.79,425.14)" ed:parentid="146"/><path stroke-linejoin="round" d="M-13.5,-7.3C-1,-7.3,1.4,7.3,13.5,7.3" fill="none" ed:tosuperid="150" stroke-linecap="round" stroke="#696969" id="151" transform="matrix(1,0,0,1,609.79,439.71)" ed:parentid="146"/><path stroke-linejoin="round" d="M-13.5,0C-2.7,0,5.4,0,13.5,0" fill="none" ed:tosuperid="152" stroke-linecap="round" stroke="#696969" id="153" transform="matrix(1,0,0,1,682.79,447)" ed:parentid="150"/><path stroke-linejoin="round" d="M-13.5,-51C5.4,-51,-13.4,51,13.5,51" fill="none" ed:tosuperid="154" stroke-linecap="round" stroke="#696969" id="155" transform="matrix(1,0,0,1,391.36,425.14)" ed:parentid="122"/><path stroke-linejoin="round" d="M-13.5,0C-2.7,0,5.4,0,13.5,0" fill="none" ed:tosuperid="156" stroke-linecap="round" stroke="#696969" id="157" transform="matrix(1,0,0,1,462.64,476.14)" ed:parentid="154"/><path stroke-linejoin="round" d="M-13.5,-78.5C5.4,-78.5,-13.5,78.5,13.5,78.5" fill="none" ed:tosuperid="158" stroke-linecap="round" stroke="#696969" id="159" transform="matrix(1,0,0,1,315.5,426.77)" ed:parentid="104"/><path stroke-linejoin="round" d="M-13.5,-93.1C5.4,-93.1,-13.5,93.1,13.5,93.1" fill="none" ed:tosuperid="160" stroke-linecap="round" stroke="#696969" id="161" transform="matrix(1,0,0,1,315.5,441.34)" ed:parentid="104"/><path stroke-linejoin="round" d="M-13.5,-107.7C5.4,-107.7,-13.5,107.7,13.5,107.7" fill="none" ed:tosuperid="162" stroke-linecap="round" stroke="#696969" id="163" transform="matrix(1,0,0,1,315.5,455.91)" ed:parentid="104"/><g ed:topictype="mainidea" ed:height="56.57142857142857" ed:layout="rightmap" ed:width="113.5714285714286" id="101" transform="matrix(1,0,0,1,23,263)"><path d="M4,0L109.6,0C112.3,0,113.6,1.3,113.6,4L113.6,52.6C113.6,55.3,112.3,56.6,109.6,56.6L4,56.6C1.3,56.6,0,55.3,0,52.6L0,4C0,1.3,1.3,0,4,0z" stroke-linejoin="round" fill="#435fbc" stroke-width="3" stroke="#435fbc"/><text class="st1"><tspan y="35.2" x="21" style="white-space:pre">&lt;html></tspan></text></g><g ed:height="36.57142857142857" ed:width="100.7142857142857" id="102" transform="matrix(1,0,0,1,199.57,41.18)" ed:parentid="101"><path d="M4,0L96.7,0C99.4,0,100.7,1.3,100.7,4L100.7,32.6C100.7,35.3,99.4,36.6,96.7,36.6L4,36.6C1.3,36.6,0,35.3,0,32.6L0,4C0,1.3,1.3,0,4,0z" stroke-linejoin="round" fill="#ebecf3" stroke="#ebecf3"/><text class="st2"><tspan y="23.7" x="18" style="white-space:pre">&lt;head></tspan></text></g><g ed:height="36.57142857142857" ed:width="102.4285714285714" id="104" transform="matrix(1,0,0,1,199.57,329.96)" ed:parentid="101"><path d="M4,0L98.4,0C101.1,0,102.4,1.3,102.4,4L102.4,32.6C102.4,35.3,101.1,36.6,98.4,36.6L4,36.6C1.3,36.6,0,35.3,0,32.6L0,4C0,1.3,1.3,0,4,0z" stroke-linejoin="round" fill="#ebecf3" stroke="#ebecf3"/><text class="st2"><tspan y="23.7" x="18" style="white-space:pre">&lt;body></tspan></text></g><g ed:height="22.64285714285714" ed:width="178" id="106" transform="matrix(1,0,0,1,327.29,19)" ed:parentid="102"><path stroke-linejoin="round" d="M0,22.6L178,22.6" fill="none" stroke="#696969"/><text class="st3"><tspan y="15.5" x="8" style="white-space:pre"> &lt;meta charset='UTF-8'></tspan></text></g><g ed:height="22.64285714285714" ed:width="470.5714285714286" id="108" transform="matrix(1,0,0,1,327.29,48.14)" ed:parentid="102"><path stroke-linejoin="round" d="M0,22.6L470.6,22.6" fill="none" stroke="#696969"/><text class="st3"><tspan y="15.5" x="8" style="white-space:pre">&lt;meta name='viewport' content='width=device-width initial-scale=1'></tspan></text></g><g ed:height="22.64285714285714" ed:width="111.7142857142857" id="110" transform="matrix(1,0,0,1,327.29,77.29)" ed:parentid="102"><path stroke-linejoin="round" d="M0,22.6L111.7,22.6" fill="none" stroke="#696969"/><text class="st3"><tspan y="15.5" x="8" style="white-space:pre">&lt;title>&lt;/title></tspan></text></g><g ed:height="22.64285714285714" ed:width="146" id="112" transform="matrix(1,0,0,1,329,132.93)" ed:parentid="104"><path stroke-linejoin="round" d="M0,22.6L146,22.6" fill="none" stroke="#696969"/><text class="st3"><tspan y="15.5" x="8" style="white-space:pre">&lt;h1>一级标题&lt;/h1></tspan></text></g><g ed:height="22.64285714285714" ed:width="153.4285714285714" id="114" transform="matrix(1,0,0,1,329,162.07)" ed:parentid="104"><path stroke-linejoin="round" d="M0,22.6L153.4,22.6" fill="none" stroke="#696969"/><text class="st3"><tspan y="15.5" x="8" style="white-space:pre">&lt;h2>二级标题1&lt;/h2></tspan></text></g><g ed:height="22.64285714285714" ed:width="153.4285714285714" id="116" transform="matrix(1,0,0,1,329,191.21)" ed:parentid="104"><path stroke-linejoin="round" d="M0,22.6L153.4,22.6" fill="none" stroke="#696969"/><text class="st3"><tspan y="15.5" x="8" style="white-space:pre">&lt;h2>二级标题2&lt;/h2></tspan></text></g><g ed:height="22.64285714285714" ed:width="153.4285714285714" id="120" transform="matrix(1,0,0,1,329,220.36)" ed:parentid="104"><path stroke-linejoin="round" d="M0,22.6L153.4,22.6" fill="none" stroke="#696969"/><text class="st3"><tspan y="15.5" x="8" style="white-space:pre">&lt;h2>二级标题3&lt;/h2></tspan></text></g><g ed:height="22.64285714285714" ed:width="48.85714285714285" id="122" transform="matrix(1,0,0,1,329,351.5)" ed:parentid="104"><path stroke-linejoin="round" d="M0,22.6L48.9,22.6" fill="none" stroke="#696969"/><text class="st3"><tspan y="15.5" x="8" style="white-space:pre">&lt;ul></tspan></text></g><g ed:height="22.64285714285714" ed:width="44.28571428571428" id="124" transform="matrix(1,0,0,1,404.86,249.5)" ed:parentid="122"><path stroke-linejoin="round" d="M0,22.6L44.3,22.6" fill="none" stroke="#696969"/><text class="st3"><tspan y="15.5" x="8" style="white-space:pre">&lt;li></tspan></text></g><g ed:height="22.64285714285714" ed:width="113.4285714285714" id="126" transform="matrix(1,0,0,1,476.14,249.5)" ed:parentid="124"><path stroke-linejoin="round" d="M0,22.6L113.4,22.6" fill="none" stroke="#696969"/><text class="st3"><tspan y="15.5" x="8" style="white-space:pre">&lt;p>项目1&lt;/p></tspan></text></g><g ed:height="22.64285714285714" ed:width="44.28571428571428" id="128" transform="matrix(1,0,0,1,404.86,351.5)" ed:parentid="122"><path stroke-linejoin="round" d="M0,22.6L44.3,22.6" fill="none" stroke="#696969"/><text class="st3"><tspan y="15.5" x="8" style="white-space:pre">&lt;li></tspan></text></g><g ed:height="22.64285714285714" ed:width="113.4285714285714" id="130" transform="matrix(1,0,0,1,476.14,278.64)" ed:parentid="128"><path stroke-linejoin="round" d="M0,22.6L113.4,22.6" fill="none" stroke="#696969"/><text class="st3"><tspan y="15.5" x="8" style="white-space:pre">&lt;p>项目2&lt;/p></tspan></text></g><g ed:height="22.64285714285714" ed:width="48.85714285714285" id="132" transform="matrix(1,0,0,1,476.14,366.07)" ed:parentid="128"><path stroke-linejoin="round" d="M0,22.6L48.9,22.6" fill="none" stroke="#696969"/><text class="st3"><tspan y="15.5" x="8" style="white-space:pre">&lt;ul></tspan></text></g><g ed:height="22.64285714285714" ed:width="44.28571428571428" id="134" transform="matrix(1,0,0,1,552,307.79)" ed:parentid="132"><path stroke-linejoin="round" d="M0,22.6L44.3,22.6" fill="none" stroke="#696969"/><text class="st3"><tspan y="15.5" x="8" style="white-space:pre">&lt;li></tspan></text></g><g ed:height="22.64285714285714" ed:width="124.2857142857143" id="136" transform="matrix(1,0,0,1,623.29,307.79)" ed:parentid="134"><path stroke-linejoin="round" d="M0,22.6L124.3,22.6" fill="none" stroke="#696969"/><text class="st3"><tspan y="15.5" x="8" style="white-space:pre">&lt;p>项目2.1&lt;/p></tspan></text></g><g ed:height="22.64285714285714" ed:width="44.28571428571428" id="140" transform="matrix(1,0,0,1,552,351.5)" ed:parentid="132"><path stroke-linejoin="round" d="M0,22.6L44.3,22.6" fill="none" stroke="#696969"/><text class="st3"><tspan y="15.5" x="8" style="white-space:pre">&lt;li></tspan></text></g><g ed:height="22.64285714285714" ed:width="124.2857142857143" id="142" transform="matrix(1,0,0,1,623.29,336.93)" ed:parentid="140"><path stroke-linejoin="round" d="M0,22.6L124.3,22.6" fill="none" stroke="#696969"/><text class="st3"><tspan y="15.5" x="8" style="white-space:pre">&lt;p>项目2.2&lt;/p></tspan></text></g><g ed:height="22.64285714285714" ed:width="176.8571428571429" id="144" transform="matrix(1,0,0,1,623.29,366.07)" ed:parentid="140"><path stroke-linejoin="round" d="M0,22.6L176.9,22.6" fill="none" stroke="#696969"/><text class="st3"><tspan y="15.5" x="8" style="white-space:pre">&lt;p>项目2.2中的段落&lt;/p></tspan></text></g><g ed:height="22.64285714285714" ed:width="44.28571428571428" id="146" transform="matrix(1,0,0,1,552,409.79)" ed:parentid="132"><path stroke-linejoin="round" d="M0,22.6L44.3,22.6" fill="none" stroke="#696969"/><text class="st3"><tspan y="15.5" x="8" style="white-space:pre">&lt;li></tspan></text></g><g ed:height="22.64285714285714" ed:width="124.2857142857143" id="148" transform="matrix(1,0,0,1,623.29,395.21)" ed:parentid="146"><path stroke-linejoin="round" d="M0,22.6L124.3,22.6" fill="none" stroke="#696969"/><text class="st3"><tspan y="15.5" x="8" style="white-space:pre">&lt;p>项目2.3&lt;/p></tspan></text></g><g ed:height="22.64285714285714" ed:width="46" id="150" transform="matrix(1,0,0,1,623.29,424.36)" ed:parentid="146"><path stroke-linejoin="round" d="M0,22.6L46,22.6" fill="none" stroke="#696969"/><text class="st3"><tspan y="15.5" x="8" style="white-space:pre">&lt;p></tspan></text></g><g ed:height="22.64285714285714" ed:width="220.2857142857143" id="152" transform="matrix(1,0,0,1,696.29,424.36)" ed:parentid="150"><path stroke-linejoin="round" d="M0,22.6L220.3,22.6" fill="none" stroke="#696969"/><text class="st3"><tspan y="15.5" x="8" style="white-space:pre">&lt;a href=''>项目2.3中的地址&lt;/a></tspan></text></g><g ed:height="22.64285714285714" ed:width="44.28571428571428" id="154" transform="matrix(1,0,0,1,404.86,453.5)" ed:parentid="122"><path stroke-linejoin="round" d="M0,22.6L44.3,22.6" fill="none" stroke="#696969"/><text class="st3"><tspan y="15.5" x="8" style="white-space:pre">&lt;li></tspan></text></g><g ed:height="22.64285714285714" ed:width="113.4285714285714" id="156" transform="matrix(1,0,0,1,476.14,453.5)" ed:parentid="154"><path stroke-linejoin="round" d="M0,22.6L113.4,22.6" fill="none" stroke="#696969"/><text class="st3"><tspan y="15.5" x="8" style="white-space:pre">&lt;p>项目3&lt;/p></tspan></text></g><g ed:height="22.64285714285714" ed:width="113.4285714285714" id="158" transform="matrix(1,0,0,1,329,482.64)" ed:parentid="104"><path stroke-linejoin="round" d="M0,22.6L113.4,22.6" fill="none" stroke="#696969"/><text class="st3"><tspan y="15.5" x="8" style="white-space:pre">&lt;p>段落1&lt;/p></tspan></text></g><g ed:height="22.64285714285714" ed:width="113.4285714285714" id="160" transform="matrix(1,0,0,1,329,511.79)" ed:parentid="104"><path stroke-linejoin="round" d="M0,22.6L113.4,22.6" fill="none" stroke="#696969"/><text class="st3"><tspan y="15.5" x="8" style="white-space:pre">&lt;p>段落2&lt;/p></tspan></text></g><g ed:height="22.64285714285714" ed:width="113.4285714285714" id="162" transform="matrix(1,0,0,1,329,540.93)" ed:parentid="104"><path stroke-linejoin="round" d="M0,22.6L113.4,22.6" fill="none" stroke="#696969"/><text class="st3"><tspan y="15.5" x="8" style="white-space:pre">&lt;p>段落3&lt;/p></tspan></text></g></svg>